<svg width="34" height="28" viewBox="0 0 34 28" fill="none" xmlns="http://www.w3.org/2000/svg">
<path d="M3.66671 27.3333C2.75004 27.3333 1.96504 27.0066 1.31171 26.3533C0.658377 25.7 0.332266 24.9155 0.333377 24V3.99996C0.333377 3.0833 0.660044 2.2983 1.31338 1.64496C1.96671 0.991629 2.75115 0.665518 3.66671 0.666629H30.3334C31.25 0.666629 32.035 0.993295 32.6884 1.64663C33.3417 2.29996 33.6678 3.08441 33.6667 3.99996V24C33.6667 24.9166 33.34 25.7016 32.6867 26.355C32.0334 27.0083 31.2489 27.3344 30.3334 27.3333H3.66671ZM17 15.6666L3.66671 7.3333V24H30.3334V7.3333L17 15.6666ZM17 12.3333L30.3334 3.99996H3.66671L17 12.3333ZM3.66671 7.3333V3.99996V24V7.3333Z" fill="white"/>
</svg>
