<svg width="25" height="25" viewBox="0 0 25 25" fill="none" xmlns="http://www.w3.org/2000/svg">
<path d="M12.5 2.08331C8.46879 2.08331 5.20837 5.34373 5.20837 9.37498C5.20837 14.8437 12.5 22.9166 12.5 22.9166C12.5 22.9166 19.7917 14.8437 19.7917 9.37498C19.7917 5.34373 16.5313 2.08331 12.5 2.08331ZM12.5 11.9791C11.8094 11.9791 11.147 11.7048 10.6586 11.2164C10.1702 10.728 9.89587 10.0656 9.89587 9.37498C9.89587 8.68431 10.1702 8.02193 10.6586 7.53356C11.147 7.04518 11.8094 6.77081 12.5 6.77081C13.1907 6.77081 13.8531 7.04518 14.3415 7.53356C14.8298 8.02193 15.1042 8.68431 15.1042 9.37498C15.1042 10.0656 14.8298 10.728 14.3415 11.2164C13.8531 11.7048 13.1907 11.9791 12.5 11.9791Z" fill="#E4183B"/>
</svg>
