<svg width="25" height="25" viewBox="0 0 25 25" fill="none" xmlns="http://www.w3.org/2000/svg">
<path d="M7.77083 12.1146C9.27083 15.0625 11.6875 17.4687 14.6354 18.9792L16.9271 16.6875C17.2083 16.4062 17.625 16.3125 17.9896 16.4375C19.1562 16.8229 20.4167 17.0312 21.7083 17.0312C22.2812 17.0312 22.75 17.5 22.75 18.0729V21.7083C22.75 22.2812 22.2812 22.75 21.7083 22.75C11.9271 22.75 4 14.8229 4 5.04167C4 4.46875 4.46875 4 5.04167 4H8.6875C9.26042 4 9.72917 4.46875 9.72917 5.04167C9.72917 6.34375 9.9375 7.59375 10.3229 8.76042C10.4375 9.125 10.3542 9.53125 10.0625 9.82292L7.77083 12.1146Z" fill="#E4183B"/>
</svg>
