<svg width="25" height="25" viewBox="0 0 25 25" fill="none" xmlns="http://www.w3.org/2000/svg">
<path d="M12.4896 2.08331C6.73962 2.08331 2.08337 6.74998 2.08337 12.5C2.08337 18.25 6.73962 22.9166 12.4896 22.9166C18.25 22.9166 22.9167 18.25 22.9167 12.5C22.9167 6.74998 18.25 2.08331 12.4896 2.08331ZM16.6667 16.6666C16.5703 16.7632 16.4559 16.8398 16.3299 16.8921C16.2038 16.9444 16.0688 16.9713 15.9323 16.9713C15.7959 16.9713 15.6608 16.9444 15.5348 16.8921C15.4088 16.8398 15.2943 16.7632 15.198 16.6666L11.7709 13.2396C11.6725 13.1431 11.5941 13.028 11.5405 12.9011C11.4869 12.7741 11.4589 12.6378 11.4584 12.5V8.33331C11.4584 7.7604 11.9271 7.29165 12.5 7.29165C13.073 7.29165 13.5417 7.7604 13.5417 8.33331V12.0729L16.6667 15.1979C17.073 15.6041 17.073 16.2604 16.6667 16.6666Z" fill="#E4183B"/>
</svg>
