<svg width="25" height="25" viewBox="0 0 25 25" fill="none" xmlns="http://www.w3.org/2000/svg">
<path d="M4.16671 20.8334C3.59379 20.8334 3.10351 20.6295 2.69587 20.2219C2.28754 19.8136 2.08337 19.3229 2.08337 18.75V6.25002C2.08337 5.6771 2.28754 5.18683 2.69587 4.77919C3.10351 4.37085 3.59379 4.16669 4.16671 4.16669H20.8334C21.4063 4.16669 21.8969 4.37085 22.3053 4.77919C22.7129 5.18683 22.9167 5.6771 22.9167 6.25002V18.75C22.9167 19.3229 22.7129 19.8136 22.3053 20.2219C21.8969 20.6295 21.4063 20.8334 20.8334 20.8334H4.16671ZM12.5 13.3594C12.5868 13.3594 12.6778 13.3462 12.773 13.3198C12.8688 13.2941 12.9601 13.2552 13.0469 13.2031L20.4167 8.59377C20.5556 8.50696 20.6598 8.39863 20.7292 8.26877C20.7987 8.13821 20.8334 7.99481 20.8334 7.83856C20.8334 7.49134 20.6858 7.23092 20.3907 7.05731C20.0955 6.8837 19.7917 6.89238 19.4792 7.08335L12.5 11.4584L5.52087 7.08335C5.20837 6.89238 4.90456 6.88787 4.60942 7.06981C4.31428 7.25245 4.16671 7.5087 4.16671 7.83856C4.16671 8.01217 4.20143 8.16391 4.27087 8.29377C4.34032 8.42433 4.44449 8.52433 4.58337 8.59377L11.9532 13.2031C12.04 13.2552 12.1313 13.2941 12.2271 13.3198C12.3223 13.3462 12.4132 13.3594 12.5 13.3594Z" fill="#E4183B"/>
</svg>
