<svg width="30" height="31" viewBox="0 0 30 31" fill="none" xmlns="http://www.w3.org/2000/svg">
<path d="M22.494 15.0147C20.8802 15.0163 19.3099 15.5384 18.0166 16.5036L13.4964 11.9834C14.473 10.6995 15 9.12988 14.996 7.51675C15.0002 5.82746 14.4338 4.18624 13.3887 2.85906C12.3435 1.53189 10.8808 0.596544 9.23763 0.204606C7.59443 -0.187333 5.86702 -0.0128947 4.33535 0.699651C2.80369 1.4122 1.55752 2.62109 0.7988 4.13042C0.0400839 5.63976 -0.186715 7.36107 0.155158 9.01542C0.497031 10.6698 1.38754 12.1602 2.68237 13.2451C3.9772 14.3301 5.60048 14.946 7.28912 14.9931C8.97776 15.0402 10.6328 14.5156 11.9861 13.5044L16.4956 18.0247C15.4847 19.3775 14.9601 21.0321 15.0069 22.7203C15.0536 24.4085 15.6689 26.0314 16.7531 27.3263C17.8373 28.6212 19.3269 29.5121 20.9806 29.8548C22.6343 30.1974 24.3553 29.9718 25.8648 29.2144C27.3742 28.4569 28.5838 27.2121 29.2975 25.6815C30.0112 24.1509 30.1873 22.4241 29.7973 20.7809C29.4072 19.1378 28.4738 17.6744 27.1483 16.6279C25.8228 15.5813 24.1828 15.0129 22.494 15.0147ZM2.14227 7.51675C2.14227 6.45749 2.45638 5.42202 3.04487 4.54128C3.63336 3.66053 4.46981 2.97408 5.44844 2.56872C6.42707 2.16336 7.50392 2.0573 8.54283 2.26395C9.58174 2.4706 10.536 2.98068 11.285 3.72969C12.0341 4.4787 12.5441 5.433 12.7508 6.4719C12.9574 7.51081 12.8514 8.58767 12.446 9.56629C12.0407 10.5449 11.3542 11.3814 10.4735 11.9699C9.59271 12.5584 8.55724 12.8725 7.49798 12.8725C6.07756 12.8725 4.71531 12.3082 3.71092 11.3038C2.70653 10.2994 2.14227 8.93718 2.14227 7.51675Z" fill="white"/>
</svg>
