<svg width="22" height="22" viewBox="0 0 22 22" fill="none" xmlns="http://www.w3.org/2000/svg">
<path d="M10.9999 14.7916C9.99434 14.7916 9.02991 14.3921 8.31884 13.6811C7.60776 12.97 7.20828 12.0056 7.20828 11C7.20828 9.99435 7.60776 9.02992 8.31884 8.31885C9.02991 7.60777 9.99434 7.20829 10.9999 7.20829C12.0056 7.20829 12.97 7.60777 13.6811 8.31885C14.3921 9.02992 14.7916 9.99435 14.7916 11C14.7916 12.0056 14.3921 12.97 13.6811 13.6811C12.97 14.3921 12.0056 14.7916 10.9999 14.7916ZM19.0491 12.0508C19.0924 11.7041 19.1249 11.3575 19.1249 11C19.1249 10.6425 19.0924 10.285 19.0491 9.91663L21.3349 8.15079C21.5408 7.9883 21.5949 7.69579 21.4649 7.45746L19.2983 3.70913C19.1683 3.47079 18.8758 3.3733 18.6374 3.4708L15.9399 4.55413C15.3766 4.13163 14.7916 3.76329 14.1091 3.49246L13.7083 0.621628C13.6863 0.49403 13.6198 0.378341 13.5207 0.295059C13.4215 0.211777 13.2961 0.16628 13.1666 0.166628H8.83328C8.56245 0.166628 8.33495 0.361628 8.29162 0.621628L7.89078 3.49246C7.20828 3.76329 6.62328 4.13163 6.05995 4.55413L3.36245 3.4708C3.12411 3.3733 2.83162 3.47079 2.70162 3.70913L0.534948 7.45746C0.394115 7.69579 0.459115 7.9883 0.664948 8.15079L2.95078 9.91663C2.90745 10.285 2.87495 10.6425 2.87495 11C2.87495 11.3575 2.90745 11.7041 2.95078 12.0508L0.664948 13.8491C0.459115 14.0116 0.394115 14.3041 0.534948 14.5425L2.70162 18.2908C2.83162 18.5291 3.12411 18.6158 3.36245 18.5291L6.05995 17.435C6.62328 17.8683 7.20828 18.2366 7.89078 18.5075L8.29162 21.3783C8.33495 21.6383 8.56245 21.8333 8.83328 21.8333H13.1666C13.4374 21.8333 13.6649 21.6383 13.7083 21.3783L14.1091 18.5075C14.7916 18.2258 15.3766 17.8683 15.9399 17.435L18.6374 18.5291C18.8758 18.6158 19.1683 18.5291 19.2983 18.2908L21.4649 14.5425C21.5949 14.3041 21.5408 14.0116 21.3349 13.8491L19.0491 12.0508Z" fill="#E4183B"/>
</svg>
