<svg width="32" height="30" viewBox="0 0 32 30" fill="none" xmlns="http://www.w3.org/2000/svg">
<path d="M16 14.6364V21.4545M16 21.4545V28.2727M16 21.4545L9.86364 18.0455M16 21.4545L22.1364 24.8636M16 21.4545L22.1364 18.0455M16 21.4545L9.86364 24.8636M26.9091 22.2823C28.9464 21.4845 31 19.6668 31 16C31 10.5455 26.455 9.18182 24.1818 9.18182C24.1818 6.45455 24.1818 1 16 1C7.81818 1 7.81818 6.45455 7.81818 9.18182C5.545 9.18182 1 10.5455 1 16C1 19.6668 3.05364 21.4845 5.09091 22.2823" stroke="white" stroke-width="2" stroke-linecap="round" stroke-linejoin="round"/>
</svg>
